<svg xmlns="http://www.w3.org/2000/svg" aria-hidden="true" style="position:absolute;width:0;height:0;overflow:hidden">
  <defs>
    <symbol id="icon-facebook" viewBox="0 0 32 32">
      <path d="M30.234 0H1.765C.79 0-.001.79-.001 1.766v28.469c0 .975.79 1.766 1.766 1.766h15.338V19.626h-4.165v-4.844h4.165v-3.564c0-4.132 2.527-6.383 6.212-6.383 1.242-.003 2.483.06 3.719.188v4.32h-2.538c-2.008 0-2.4.949-2.4 2.35v3.084h4.8l-.623 4.844h-4.204v12.381h8.165c.975 0 1.766-.79 1.766-1.766V1.767c0-.975-.79-1.766-1.766-1.766z"/>
    </symbol>
    <symbol id="icon-twiter" viewBox="0 0 37 32">
      <path d="M11.488 29.737c13.8 0 21.352-11.444 21.352-21.352 0-.322 0-.644-.015-.966a15.26 15.26 0 0 0 3.746-3.893c-1.346.6-2.795.995-4.317 1.185A7.548 7.548 0 0 0 35.561.555 14.952 14.952 0 0 1 30.79 2.37a7.492 7.492 0 0 0-5.473-2.371 7.513 7.513 0 0 0-7.507 7.507A8.3 8.3 0 0 0 18 9.218C11.766 8.911 6.234 5.911 2.531 1.374a7.504 7.504 0 0 0-1.01 3.776 7.524 7.524 0 0 0 3.337 6.249 7.582 7.582 0 0 1-3.395-.937v.102a7.52 7.52 0 0 0 6.015 7.361 7.301 7.301 0 0 1-1.976.263c-.483 0-.951-.044-1.405-.132a7.505 7.505 0 0 0 7.01 5.21 15.055 15.055 0 0 1-9.322 3.219c-.6 0-1.2-.029-1.785-.102a21.349 21.349 0 0 0 11.488 3.351z"/>
    </symbol>
    <symbol id="icon-telegram" viewBox="0 0 32 32">
<path fill="#fff" style="fill: var(--color1, #fff)" d="M20.466 23.333l-4.527-3.047-1.826 1.531-0.741-3.259 7.906-6.924-9.48 5.445-4.465-3.222 17.333-5.191-4.2 14.667z"></path>
</symbol>
  </defs>
</svg>
